<svg id="svg" version="1.1" xmlns="http://www.w3.org/2000/svg" width="400" height="386.75496688741725"
     viewBox="0, 0, 400,386.75496688741725"><g id="svgg"><path id="path0" d="M230.871 40.611 L 230.871 58.014 246.815 67.464 C 255.584 72.662,262.976 76.924,263.243 76.935 C 263.509 76.947,263.878 77.158,264.064 77.403 C 264.267 77.673,264.480 77.779,264.600 77.671 C 264.720 77.563,270.741 81.020,279.850 86.428 C 288.128 91.343,294.937 95.364,294.980 95.364 C 295.023 95.364,295.055 87.685,295.051 78.299 L 295.044 61.233 263.823 42.739 C 246.652 32.568,232.213 24.012,231.737 23.726 L 230.871 23.207 230.871 40.611 M65.614 60.899 L 65.614 79.041 80.387 87.906 L 95.160 96.772 95.160 78.594 L 95.160 60.416 80.565 51.655 C 72.537 46.836,65.889 42.863,65.792 42.826 C 65.691 42.787,65.614 50.656,65.614 60.899 M133.469 98.801 L 133.469 116.331 149.720 126.083 L 165.970 135.834 166.072 153.846 L 166.174 171.858 181.728 181.192 C 190.282 186.325,197.320 190.525,197.367 190.525 C 197.414 190.525,197.450 174.455,197.445 154.814 L 197.438 119.103 165.626 100.255 C 148.130 89.888,133.737 81.375,133.642 81.338 C 133.547 81.301,133.469 89.159,133.469 98.801 M66.225 156.376 L 66.225 192.155 66.718 192.155 C 66.988 192.155,67.244 192.256,67.285 192.380 C 67.333 192.524,67.630 192.453,68.111 192.183 C 70.442 190.873,98.227 174.287,98.792 173.868 L 99.468 173.365 114.431 182.342 L 129.394 191.320 129.394 174.655 L 129.394 157.991 97.982 139.362 C 80.706 129.117,66.493 120.703,66.398 120.666 C 66.303 120.628,66.225 136.698,66.225 156.376 M234.385 153.977 L 234.437 171.260 249.078 179.975 C 257.130 184.769,263.755 188.691,263.800 188.691 C 263.845 188.691,263.882 181.298,263.882 172.263 L 263.882 155.835 263.173 154.669 L 262.465 153.502 248.577 145.167 C 240.939 140.582,234.610 136.801,234.511 136.763 C 234.410 136.724,234.355 144.143,234.385 153.977 M332.145 171.250 L 332.145 189.062 332.690 189.895 C 332.990 190.353,333.357 190.728,333.505 190.728 C 333.655 190.728,333.775 190.949,333.775 191.226 C 333.775 191.500,333.964 192.044,334.194 192.435 L 334.614 193.146 334.193 193.372 L 333.773 193.597 333.825 211.255 L 333.877 228.914 348.548 237.729 C 356.617 242.578,363.289 246.548,363.373 246.553 C 363.457 246.558,363.503 229.809,363.475 209.333 L 363.423 172.105 347.870 162.772 C 339.316 157.639,332.278 153.439,332.231 153.439 C 332.183 153.439,332.145 161.454,332.145 171.250 M1.426 195.999 L 1.426 232.684 15.876 241.355 C 23.824 246.124,30.380 250.025,30.446 250.025 C 30.512 250.025,30.565 233.533,30.565 213.376 L 30.565 176.727 16.173 168.088 C 8.258 163.337,1.701 159.419,1.604 159.382 C 1.503 159.343,1.426 175.253,1.426 195.999 M200.516 211.554 L 200.523 228.528 215.791 237.671 C 224.977 243.172,231.181 246.768,231.364 246.698 C 231.576 246.616,231.893 246.950,232.405 247.794 C 232.811 248.461,233.273 249.007,233.433 249.007 C 233.625 249.007,233.725 249.232,233.726 249.669 C 233.727 250.033,233.726 258.364,233.724 268.181 L 233.720 286.032 249.133 295.283 C 257.610 300.371,264.625 304.564,264.723 304.602 C 264.824 304.640,264.901 289.066,264.901 268.722 L 264.901 232.775 232.979 213.840 C 215.421 203.426,200.933 194.832,200.783 194.743 C 200.555 194.607,200.511 197.406,200.516 211.554 M67.244 232.256 L 67.244 267.467 99.083 286.344 C 116.594 296.727,131.083 305.283,131.279 305.358 C 131.619 305.488,131.634 303.768,131.585 270.283 L 131.533 235.071 99.465 216.058 C 81.828 205.601,67.363 197.045,67.320 197.045 C 67.278 197.045,67.244 212.890,67.244 232.256 M169.333 269.360 C 169.333 281.158,169.264 287.112,169.127 287.112 C 169.005 287.112,169.026 287.283,169.178 287.532 C 169.512 288.078,171.180 287.020,152.636 298.033 C 138.072 306.681,136.540 307.640,136.533 308.111 C 136.521 308.976,165.660 326.177,166.361 325.718 C 166.829 325.411,166.858 325.428,167.425 326.350 C 167.979 327.251,168.742 327.733,182.883 336.116 L 197.759 344.935 197.810 306.912 C 197.851 276.660,197.809 268.842,197.606 268.655 C 197.466 268.526,191.253 264.770,183.800 260.308 C 176.347 255.847,170.043 252.064,169.791 251.903 L 169.333 251.609 169.333 269.360 M70.097 328.918 L 70.097 346.510 101.461 365.104 C 118.711 375.331,132.878 383.698,132.943 383.698 C 133.008 383.698,133.058 375.790,133.053 366.123 L 133.044 348.548 101.743 330.005 C 84.528 319.806,70.365 311.431,70.270 311.394 C 70.175 311.357,70.097 319.243,70.097 328.918 M234.335 347.054 L 234.335 364.239 249.703 373.459 C 258.155 378.530,265.124 382.680,265.189 382.680 C 265.255 382.680,265.305 374.954,265.302 365.512 L 265.295 348.344 249.993 339.175 C 241.576 334.131,234.610 329.975,234.513 329.937 C 234.413 329.899,234.335 337.374,234.335 347.054 " stroke="none" fill="#343434" fill-rule="evenodd"></path><path id="path1" d="M130.305 0.327 C 130.196 0.497,115.298 9.421,97.198 20.157 C 74.102 33.857,64.320 39.762,64.391 39.961 C 64.447 40.117,64.512 49.139,64.536 60.010 L 64.578 79.776 79.863 88.945 C 93.982 97.416,95.147 98.157,95.154 98.662 C 95.159 99.097,95.269 99.222,95.691 99.273 C 96.110 99.324,94.885 100.132,89.876 103.107 C 86.386 105.181,83.282 107.037,82.978 107.232 C 82.674 107.426,82.287 107.647,82.119 107.722 C 81.951 107.796,81.687 107.958,81.532 108.081 C 81.378 108.203,80.766 108.579,80.174 108.915 C 79.285 109.419,74.549 112.244,68.887 115.646 C 67.884 116.248,67.736 116.284,67.341 116.025 C 66.837 115.695,66.543 115.924,65.939 117.117 C 65.754 117.481,65.514 117.779,65.405 117.779 C 65.296 117.779,65.206 117.920,65.206 118.092 C 65.206 118.264,65.057 118.633,64.874 118.912 C 64.566 119.381,64.566 119.447,64.874 119.787 C 65.285 120.241,65.396 155.680,64.987 155.680 C 64.866 155.680,64.476 155.385,64.121 155.024 C 63.765 154.663,63.359 154.393,63.217 154.422 C 63.076 154.452,56.204 150.422,47.946 145.467 C 39.688 140.511,32.900 136.551,32.862 136.666 C 32.824 136.781,32.681 137.016,32.545 137.188 C 32.113 137.735,3.045 154.904,2.746 154.789 C 2.578 154.725,2.282 154.929,2.031 155.281 C 1.796 155.612,1.358 155.944,1.058 156.020 C 0.247 156.223,-0.064 156.606,0.192 157.085 C 0.337 157.356,0.402 169.540,0.398 195.450 L 0.391 233.418 15.478 242.486 C 23.776 247.473,30.565 251.668,30.565 251.808 C 30.565 251.948,30.749 252.063,30.973 252.063 C 31.197 252.063,31.817 252.307,32.350 252.604 L 33.319 253.146 49.212 243.682 L 65.104 234.219 65.156 251.903 L 65.209 269.587 65.854 269.587 C 66.340 269.587,70.652 272.050,83.389 279.601 L 100.278 289.615 91.657 294.752 C 86.916 297.577,80.423 301.449,77.229 303.356 C 73.173 305.777,71.329 306.773,71.116 306.659 C 70.775 306.476,69.001 308.218,69.200 308.540 C 69.261 308.638,69.110 309.042,68.866 309.438 C 68.455 310.102,68.446 310.185,68.750 310.520 C 69.179 310.995,69.261 346.144,68.833 346.572 C 68.643 346.762,68.643 346.870,68.833 347.061 C 68.968 347.195,69.078 347.608,69.078 347.978 C 69.078 348.559,69.147 348.650,69.587 348.650 C 69.919 348.650,70.097 348.536,70.097 348.323 C 70.097 348.138,70.212 348.039,70.361 348.096 C 70.770 348.253,132.938 385.133,133.060 385.291 C 133.119 385.368,133.736 385.724,134.432 386.083 L 135.696 386.736 136.125 386.134 C 136.361 385.803,136.698 385.532,136.874 385.532 C 137.050 385.532,137.296 385.405,137.420 385.250 C 137.708 384.890,167.847 366.966,168.406 366.822 C 169.004 366.668,169.336 366.153,169.109 365.730 C 169.000 365.525,168.944 357.958,168.975 347.328 L 169.027 329.275 184.310 338.346 L 199.592 347.417 199.963 346.974 C 200.234 346.652,200.376 346.600,200.489 346.783 C 200.598 346.959,205.288 344.279,216.307 337.745 L 231.970 328.456 232.643 328.818 L 233.316 329.181 233.316 346.618 C 233.316 359.966,233.259 364.113,233.070 364.301 C 232.693 364.679,232.325 364.445,249.490 374.731 C 265.290 384.198,266.327 384.790,266.327 384.333 C 266.327 384.021,267.086 384.045,267.202 384.361 C 267.276 384.564,267.349 384.564,267.565 384.361 C 267.713 384.221,268.229 384.106,268.711 384.106 C 269.494 384.106,269.587 384.055,269.587 383.630 C 269.587 382.973,333.073 345.261,334.013 345.360 L 334.590 345.420 334.590 327.383 C 334.590 315.546,334.660 309.303,334.794 309.220 C 334.931 309.136,334.931 308.967,334.794 308.712 C 334.682 308.502,334.590 307.912,334.590 307.400 C 334.590 306.521,334.559 306.470,334.030 306.468 C 333.618 306.467,333.375 306.301,333.115 305.844 L 332.760 305.222 332.159 305.577 L 331.558 305.932 316.161 296.696 C 307.693 291.617,300.764 287.405,300.765 287.337 C 300.766 287.090,332.928 268.161,333.346 268.161 C 333.617 268.161,333.776 268.030,333.779 267.804 C 333.781 267.608,333.779 259.074,333.775 248.840 L 333.767 230.232 334.554 230.704 C 357.633 244.545,363.525 248.133,363.525 248.344 C 363.525 248.484,363.704 248.599,363.923 248.599 C 364.142 248.599,364.561 248.708,364.855 248.842 C 365.258 249.026,365.424 249.028,365.534 248.849 C 365.615 248.719,365.906 248.626,366.182 248.643 C 367.233 248.707,367.804 248.593,367.804 248.317 C 367.804 248.161,374.886 243.820,383.749 238.545 L 399.694 229.054 399.642 190.024 L 399.590 150.993 399.055 150.993 C 398.419 150.993,397.226 150.298,396.938 149.760 C 396.825 149.550,396.606 149.427,396.451 149.487 C 396.296 149.546,389.369 145.546,381.058 140.598 C 372.747 135.649,365.837 131.643,365.703 131.694 C 365.327 131.839,336.606 148.929,335.931 149.410 C 335.437 149.762,335.239 149.797,334.764 149.618 C 334.224 149.414,334.153 149.457,333.475 150.402 C 333.080 150.951,332.659 151.401,332.539 151.401 C 332.417 151.401,332.376 151.573,332.445 151.791 C 332.513 152.006,332.473 152.241,332.357 152.313 C 332.210 152.403,332.145 146.878,332.145 134.500 L 332.145 116.556 331.686 116.556 C 331.344 116.556,331.078 116.284,330.637 115.486 C 329.717 113.820,329.768 113.850,328.804 114.415 L 327.951 114.915 313.441 106.313 C 305.460 101.582,298.930 97.653,298.930 97.581 C 298.930 97.509,306.127 93.166,314.923 87.931 C 331.699 77.945,331.353 78.179,330.310 77.534 C 329.932 77.301,330.041 42.453,330.420 42.308 C 330.701 42.200,330.701 42.127,330.420 41.583 C 330.248 41.250,330.107 40.750,330.107 40.472 C 330.107 40.150,329.963 39.921,329.710 39.840 C 329.491 39.771,329.117 39.398,328.879 39.013 C 328.522 38.436,328.379 38.347,328.073 38.510 C 327.770 38.673,321.751 35.182,295.369 19.540 C 266.469 2.406,263.001 0.402,262.695 0.662 C 261.850 1.379,232.553 18.637,232.149 18.655 C 231.899 18.666,231.367 19.013,230.967 19.424 C 230.567 19.836,230.167 20.173,230.077 20.173 C 229.988 20.173,229.907 20.443,229.897 20.772 C 229.888 21.101,229.774 21.569,229.644 21.812 C 229.472 22.132,229.469 22.316,229.630 22.477 C 229.845 22.693,229.979 57.259,229.764 57.259 C 229.716 57.259,222.795 53.179,214.384 48.192 C 205.838 43.124,198.887 39.128,198.629 39.134 C 198.374 39.140,190.555 43.662,181.253 49.184 L 164.340 59.223 164.288 40.504 C 164.237 22.023,164.231 21.778,163.824 21.341 C 163.534 21.031,163.446 20.737,163.529 20.362 C 163.623 19.930,163.535 19.753,163.076 19.455 C 162.763 19.252,162.385 18.916,162.238 18.709 C 162.090 18.502,161.884 18.385,161.780 18.449 C 161.600 18.560,133.322 1.736,131.844 0.639 C 130.985 0.001,130.566 -0.084,130.305 0.327 M145.855 10.396 C 153.956 15.250,160.512 19.283,160.425 19.358 C 160.337 19.433,146.281 27.777,129.190 37.900 C 112.099 48.023,97.962 56.400,97.775 56.516 C 97.465 56.707,67.885 39.298,67.862 38.911 C 67.852 38.749,130.851 1.424,131.000 1.503 C 131.069 1.540,137.754 5.542,145.855 10.396 M294.901 20.531 C 312.241 30.813,326.426 39.317,326.421 39.429 C 326.413 39.647,296.882 57.297,296.674 57.209 C 296.209 57.014,233.319 19.643,233.319 19.562 C 233.317 19.410,262.900 1.834,263.154 1.835 C 263.274 1.836,277.560 10.249,294.901 20.531 M163.219 41.314 L 163.218 60.010 149.113 68.365 C 141.355 72.960,134.790 76.723,134.522 76.728 C 134.235 76.733,133.871 76.962,133.634 77.288 C 133.412 77.592,133.100 77.840,132.939 77.840 C 132.778 77.840,125.225 82.241,116.155 87.621 C 107.085 93.001,99.614 97.402,99.552 97.402 C 99.490 97.402,99.443 89.080,99.447 78.910 L 99.454 60.418 131.286 41.537 C 148.793 31.152,163.141 22.648,163.169 22.637 C 163.197 22.627,163.219 31.032,163.219 41.314 M262.922 42.097 C 280.429 52.474,294.822 61.030,294.907 61.110 C 294.992 61.190,295.037 68.964,295.009 78.387 L 294.957 95.517 279.878 86.577 C 271.584 81.659,264.673 77.683,264.518 77.741 C 264.364 77.800,264.118 77.685,263.973 77.487 C 263.827 77.289,263.531 77.127,263.313 77.127 C 263.096 77.127,255.711 72.863,246.902 67.652 L 230.885 58.176 230.878 40.703 C 230.874 31.093,230.921 23.230,230.981 23.230 C 231.042 23.230,245.415 31.720,262.922 42.097 M229.889 59.839 C 254.846 74.635,260.997 78.363,260.785 78.563 C 260.356 78.965,199.226 115.145,199.079 115.084 C 198.132 114.692,136.794 78.104,136.902 77.995 C 137.069 77.826,198.530 41.368,198.651 41.366 C 198.693 41.366,212.750 49.679,229.889 59.839 M81.222 51.930 L 95.262 60.355 95.209 78.589 C 95.178 89.223,95.080 96.795,94.974 96.756 C 94.873 96.719,88.203 92.717,80.151 87.863 L 65.512 79.037 65.565 60.802 L 65.618 42.567 66.400 43.036 C 66.830 43.294,73.499 47.296,81.222 51.930 M328.936 78.275 C 328.852 78.358,322.593 82.108,315.028 86.608 C 307.463 91.108,300.837 95.056,300.305 95.382 L 299.335 95.973 299.388 78.302 L 299.440 60.630 314.213 51.836 L 328.986 43.041 329.038 60.582 C 329.067 70.230,329.021 78.191,328.936 78.275 M281.339 88.561 C 289.949 93.673,297.361 98.066,297.809 98.323 C 300.474 99.853,326.564 115.377,326.702 115.515 C 326.861 115.675,267.477 151.042,267.029 151.055 C 266.777 151.062,236.984 133.216,236.984 133.058 C 236.984 132.622,263.932 116.964,264.683 116.964 C 265.427 116.964,265.512 116.913,265.512 116.465 C 265.512 116.190,265.663 115.881,265.847 115.777 C 266.159 115.603,266.159 115.555,265.845 115.107 C 265.532 114.660,265.294 79.266,265.604 79.266 C 265.648 79.266,272.728 83.449,281.339 88.561 M131.912 118.020 C 132.372 118.082,161.986 135.705,161.982 135.914 C 161.979 136.045,131.881 153.927,131.521 154.012 C 131.325 154.058,72.797 119.566,69.115 117.236 C 68.655 116.944,98.180 99.032,99.121 99.032 C 99.278 99.032,99.437 98.938,99.476 98.822 C 99.514 98.707,106.697 94.372,115.438 89.190 L 131.330 79.769 131.382 98.862 L 131.434 117.956 131.912 118.020 M165.767 100.228 L 197.351 118.966 197.403 154.871 L 197.454 190.776 196.995 190.481 C 196.742 190.319,189.682 186.077,181.304 181.054 L 166.072 171.922 166.072 153.969 L 166.072 136.015 149.771 126.235 L 133.469 116.455 133.469 98.771 C 133.469 81.987,133.487 81.096,133.826 81.288 C 134.022 81.399,148.395 89.923,165.767 100.228 M263.474 98.487 L 263.474 114.854 249.186 123.359 C 241.328 128.037,234.771 131.815,234.615 131.755 C 234.459 131.696,234.218 131.832,234.079 132.059 C 233.940 132.286,233.390 132.741,232.858 133.071 C 231.893 133.667,231.705 133.942,232.097 134.184 C 232.234 134.269,232.300 140.710,232.294 153.421 L 232.285 172.531 220.524 179.531 C 214.055 183.381,207.180 187.471,205.247 188.620 L 201.731 190.709 201.782 154.614 L 201.834 118.520 232.501 100.327 C 249.368 90.321,263.237 82.131,263.321 82.127 C 263.406 82.123,263.474 89.485,263.474 98.487 M331.126 153.540 C 331.126 172.985,331.072 188.895,331.007 188.895 C 330.942 188.895,323.613 184.530,314.721 179.195 L 298.553 169.495 283.456 178.481 C 275.153 183.424,268.314 187.468,268.260 187.468 C 268.206 187.468,268.165 180.247,268.170 171.421 L 268.178 155.374 299.499 136.799 C 316.726 126.583,330.889 118.215,330.973 118.205 C 331.057 118.195,331.126 134.096,331.126 153.540 M98.667 139.631 L 129.376 157.820 129.385 174.580 C 129.390 183.798,129.355 191.340,129.308 191.340 C 129.261 191.340,122.506 187.309,114.296 182.383 C 102.224 175.140,99.327 173.481,99.150 173.709 C 98.966 173.944,71.229 190.539,68.212 192.219 C 67.464 192.636,67.244 192.689,67.244 192.456 C 67.244 192.271,67.049 192.155,66.735 192.155 L 66.225 192.155 66.225 156.280 L 66.225 120.405 67.091 120.924 C 67.567 121.209,81.777 129.627,98.667 139.631 M380.607 141.594 C 388.584 146.342,395.106 150.285,395.101 150.356 C 395.093 150.470,366.457 167.562,365.587 167.971 C 365.208 168.149,336.322 150.992,336.322 150.589 C 336.322 150.346,365.572 132.863,365.885 132.920 C 366.006 132.942,372.631 136.845,380.607 141.594 M248.957 145.284 L 262.662 153.500 263.273 154.628 L 263.884 155.757 263.832 172.302 L 263.780 188.847 249.058 180.085 L 234.335 171.323 234.335 153.901 L 234.335 136.479 234.794 136.773 C 235.046 136.935,241.419 140.765,248.957 145.284 M47.733 146.612 C 55.550 151.296,61.942 155.184,61.937 155.251 C 61.930 155.356,33.062 172.585,32.612 172.753 C 32.403 172.832,3.815 155.669,3.942 155.541 C 4.179 155.305,33.326 138.008,33.418 138.050 C 33.474 138.075,39.916 141.928,47.733 146.612 M163.985 156.411 L 163.933 173.037 148.902 181.984 C 140.635 186.906,133.827 190.932,133.772 190.932 C 133.718 190.932,133.673 183.469,133.673 174.347 L 133.673 157.762 148.701 148.792 C 156.966 143.859,163.798 139.814,163.883 139.804 C 163.968 139.794,164.014 147.267,163.985 156.411 M348.293 162.909 L 363.525 172.041 363.525 209.415 C 363.525 229.971,363.456 246.752,363.372 246.705 C 363.288 246.659,356.594 242.652,348.497 237.800 L 333.775 228.978 333.775 211.251 C 333.775 194.825,333.800 193.506,334.120 193.272 C 334.445 193.035,334.445 192.988,334.120 192.492 C 333.930 192.203,333.775 191.687,333.775 191.347 C 333.775 190.897,333.678 190.726,333.418 190.720 C 333.222 190.715,332.855 190.388,332.603 189.993 L 332.145 189.274 332.145 171.231 L 332.145 153.188 332.603 153.482 C 332.855 153.644,339.916 157.886,348.293 162.909 M398.523 190.980 L 398.472 228.521 386.818 235.453 C 380.409 239.265,373.509 243.363,371.485 244.559 L 367.804 246.734 367.804 209.178 L 367.804 171.622 383.036 162.541 C 391.414 157.547,398.337 153.455,398.421 153.449 C 398.506 153.443,398.552 170.332,398.523 190.980 M65.054 232.936 C 64.869 233.119,35.462 250.639,35.099 250.783 C 34.896 250.864,34.846 243.352,34.849 213.623 L 34.854 176.363 49.979 167.371 L 65.104 158.380 65.156 195.583 C 65.184 216.044,65.138 232.853,65.054 232.936 M16.773 168.314 L 30.552 176.566 30.559 213.404 L 30.565 250.242 30.081 249.981 C 29.814 249.837,23.258 245.915,15.511 241.264 L 1.426 232.809 1.426 195.965 L 1.426 159.121 2.210 159.591 C 2.641 159.850,9.194 163.775,16.773 168.314 M314.671 181.452 C 323.049 186.475,329.903 190.644,329.903 190.716 C 329.903 190.973,266.669 228.324,266.247 228.317 C 265.869 228.311,205.101 192.467,204.420 191.848 C 204.207 191.656,207.262 189.755,219.255 182.617 L 234.357 173.628 249.747 182.790 C 266.703 192.883,265.340 192.145,265.716 191.442 C 265.866 191.161,266.094 190.932,266.223 190.932 C 266.352 190.932,273.693 186.626,282.537 181.362 C 297.093 172.698,298.654 171.817,299.028 172.056 C 299.254 172.201,306.294 176.429,314.671 181.452 M181.508 183.470 C 189.493 188.259,196.022 192.240,196.016 192.318 C 195.988 192.727,132.418 230.097,131.886 230.018 C 131.371 229.941,70.128 193.815,70.106 193.576 C 70.101 193.517,76.747 189.511,84.874 184.673 L 99.652 175.878 115.421 185.340 L 131.190 194.803 132.381 194.127 C 133.035 193.756,140.632 189.245,149.261 184.103 C 157.891 178.961,165.204 174.716,165.512 174.670 C 165.820 174.623,166.072 174.493,166.072 174.380 C 166.072 174.268,166.279 174.309,166.531 174.470 C 166.783 174.632,173.523 178.682,181.508 183.470 M232.890 213.653 L 264.883 232.603 264.892 268.733 L 264.901 304.863 264.117 304.393 C 263.686 304.134,256.674 299.934,248.535 295.059 L 233.737 286.195 233.731 267.601 C 233.724 250.032,233.704 249.006,233.367 249.003 C 233.155 249.001,232.757 248.568,232.384 247.933 C 231.977 247.240,231.633 246.878,231.399 246.898 C 231.202 246.915,224.171 242.807,215.775 237.769 L 200.509 228.608 200.509 211.587 C 200.509 200.927,200.582 194.592,200.703 194.634 C 200.809 194.671,215.293 203.230,232.890 213.653 M331.735 230.616 L 331.733 266.429 300.631 284.870 C 283.525 295.013,269.451 303.342,269.355 303.379 C 269.258 303.417,269.180 287.478,269.180 267.616 L 269.180 231.785 300.306 213.310 C 317.425 203.149,331.500 194.828,331.584 194.819 C 331.668 194.811,331.736 210.920,331.735 230.616 M198.422 212.649 L 198.370 229.271 183.844 237.920 C 171.458 245.293,169.258 246.536,168.916 246.352 C 168.571 246.168,168.454 246.239,168.095 246.846 C 167.865 247.236,167.362 247.741,166.977 247.968 C 166.260 248.391,166.112 248.677,166.488 248.910 C 166.605 248.982,166.646 249.211,166.580 249.419 C 166.500 249.673,166.597 249.870,166.879 250.021 C 167.297 250.244,167.297 250.268,167.245 268.592 L 167.193 286.940 151.643 296.195 C 143.090 301.286,136.053 305.451,136.004 305.451 C 135.955 305.451,135.914 289.144,135.914 269.214 L 135.914 232.977 167.040 214.511 C 184.159 204.354,198.235 196.041,198.320 196.036 C 198.405 196.031,198.451 203.507,198.422 212.649 M99.898 216.197 L 131.635 235.008 131.635 270.230 C 131.635 299.138,131.587 305.451,131.368 305.451 C 131.221 305.451,116.756 296.946,99.224 286.550 L 67.346 267.650 67.294 232.222 L 67.243 196.794 67.702 197.090 C 67.954 197.253,82.443 205.851,99.898 216.197 M229.027 248.151 C 229.008 248.419,200.848 265.003,200.424 264.996 C 200.053 264.990,172.284 248.509,171.627 247.904 C 171.282 247.586,198.866 231.139,199.912 231.040 C 200.585 230.976,229.058 247.710,229.027 248.151 M183.920 260.265 C 191.811 265.000,198.177 268.905,198.064 268.942 C 197.929 268.987,197.860 281.824,197.860 306.996 C 197.860 327.888,197.810 344.982,197.748 344.982 C 196.959 344.982,167.892 327.271,167.433 326.510 C 166.898 325.626,166.616 325.443,166.378 325.828 C 166.309 325.940,166.120 326.032,165.958 326.032 C 165.625 326.032,137.227 309.257,136.684 308.740 C 135.846 307.941,135.924 307.889,152.900 297.789 C 171.996 286.428,169.419 288.064,169.092 287.512 C 168.879 287.153,168.876 287.039,169.078 286.966 C 169.279 286.893,169.333 283.167,169.333 269.265 C 169.333 259.580,169.386 251.656,169.452 251.656 C 169.517 251.656,176.028 255.530,183.920 260.265 M231.977 287.519 C 232.218 287.519,264.671 306.845,265.165 307.282 C 265.496 307.575,235.314 325.264,234.847 325.051 C 234.370 324.834,233.416 325.486,233.286 326.118 C 233.229 326.392,202.631 344.778,202.231 344.778 C 202.180 344.778,202.162 327.756,202.190 306.952 L 202.241 269.125 216.913 260.392 L 231.584 251.659 231.636 269.589 C 231.681 284.895,231.731 287.519,231.977 287.519 M315.384 297.500 C 323.699 302.484,330.437 306.628,330.356 306.709 C 330.247 306.816,285.918 333.141,268.642 343.356 L 266.984 344.336 251.730 335.185 C 243.340 330.151,236.453 325.964,236.426 325.879 C 236.398 325.795,241.946 322.427,248.754 318.396 C 255.561 314.364,262.633 310.169,264.468 309.073 C 266.891 307.627,267.991 307.081,268.480 307.081 C 269.090 307.081,269.160 307.018,269.218 306.427 C 269.309 305.492,299.381 287.566,299.938 288.114 C 300.118 288.291,307.069 292.515,315.384 297.500 M117.213 299.514 C 130.648 307.489,133.005 308.821,133.270 308.593 C 133.533 308.366,133.786 308.477,134.951 309.332 C 135.705 309.886,136.322 310.248,136.322 310.137 C 136.322 309.783,163.793 325.734,164.686 326.606 C 164.838 326.754,135.201 344.473,134.802 344.473 C 133.925 344.473,72.356 307.574,72.767 307.294 C 73.171 307.020,101.320 290.207,101.420 290.180 C 101.445 290.174,108.552 294.374,117.213 299.514 M333.521 326.978 L 333.469 344.022 301.885 362.754 C 284.513 373.057,270.140 381.575,269.944 381.683 C 269.606 381.869,269.587 381.005,269.587 364.804 L 269.587 347.730 301.426 328.841 C 318.938 318.452,333.335 309.948,333.419 309.943 C 333.504 309.938,333.550 317.604,333.521 326.978 M102.089 330.110 C 118.956 340.106,132.825 348.349,132.910 348.427 C 132.995 348.506,133.040 356.520,133.012 366.235 L 132.960 383.900 101.579 365.295 L 70.199 346.691 70.147 328.906 L 70.095 311.122 70.758 311.529 C 71.123 311.753,85.222 320.115,102.089 330.110 M249.787 338.951 C 258.117 343.949,265.017 348.039,265.120 348.039 C 265.234 348.039,265.308 354.957,265.308 365.468 L 265.308 382.896 264.823 382.635 C 264.557 382.491,257.565 378.308,249.286 373.338 L 234.233 364.301 234.287 346.990 C 234.316 337.468,234.407 329.720,234.490 329.770 C 234.573 329.821,241.456 333.952,249.787 338.951 M167.906 347.813 L 167.906 365.723 153.082 374.541 C 144.929 379.391,138.051 383.492,137.798 383.655 L 137.339 383.951 137.391 365.967 L 137.443 347.984 152.624 338.945 C 160.973 333.974,167.827 329.906,167.855 329.905 C 167.883 329.904,167.906 337.963,167.906 347.813 " stroke="none" fill="#eb632c" fill-rule="evenodd"></path><path id="path2" d="M99.440 20.182 C 82.236 30.383,68.141 38.795,68.117 38.876 C 68.080 39.003,96.793 56.314,97.322 56.483 C 97.484 56.534,159.696 19.819,160.221 19.361 C 160.371 19.230,131.249 1.628,130.888 1.632 C 130.795 1.633,116.643 9.980,99.440 20.182 M248.242 10.664 C 240.145 15.498,233.520 19.501,233.520 19.559 C 233.521 19.666,295.232 56.313,296.283 56.830 C 296.852 57.110,297.099 56.973,311.729 48.272 C 319.906 43.409,326.584 39.420,326.569 39.409 C 326.211 39.141,263.439 2.018,263.246 1.960 C 263.091 1.913,256.340 5.830,248.242 10.664 M167.824 59.702 C 151.024 69.667,137.205 77.894,137.115 77.984 C 137.002 78.097,198.161 114.597,199.133 114.997 C 199.262 115.050,260.806 78.560,260.816 78.424 C 260.829 78.240,198.938 41.568,198.628 41.576 C 198.486 41.580,184.624 49.736,167.824 59.702 M265.512 79.597 C 265.512 79.766,265.604 80.076,265.716 80.286 C 265.853 80.542,265.853 80.710,265.716 80.794 C 265.302 81.050,265.450 114.249,265.869 114.961 C 266.208 115.539,266.208 115.580,265.869 115.830 C 265.672 115.974,265.512 116.288,265.512 116.528 C 265.512 116.893,265.392 116.964,264.774 116.964 C 264.102 116.964,237.188 132.663,237.188 133.055 C 237.188 133.156,265.914 150.471,266.719 150.856 C 266.986 150.983,274.245 146.772,296.603 133.519 C 312.845 123.891,326.290 115.928,326.481 115.824 C 326.787 115.656,303.117 101.464,267.825 80.653 C 266.229 79.712,265.512 79.385,265.512 79.597 M115.639 89.168 C 107.010 94.276,99.804 98.623,99.626 98.827 C 99.448 99.032,99.122 99.230,98.901 99.268 C 98.019 99.421,68.905 116.857,69.147 117.087 C 69.277 117.211,83.340 125.580,100.398 135.684 L 131.412 154.057 146.595 145.037 C 154.946 140.075,161.779 135.970,161.779 135.914 C 161.780 135.743,132.215 118.089,131.811 118.020 C 131.447 117.957,131.432 117.274,131.382 98.918 L 131.330 79.881 115.639 89.168 M351.184 141.653 C 343.122 146.452,336.526 150.471,336.526 150.584 C 336.526 150.697,343.002 154.676,350.917 159.425 L 365.308 168.060 380.100 159.272 C 388.235 154.439,394.894 150.425,394.898 150.354 C 394.902 150.282,390.619 147.673,385.380 144.555 C 380.140 141.437,373.601 137.546,370.848 135.908 L 365.842 132.928 351.184 141.653 M18.692 146.806 C 10.761 151.541,4.221 155.466,4.159 155.528 C 4.097 155.590,10.453 159.486,18.283 164.184 L 32.520 172.728 47.233 163.969 L 61.947 155.211 47.733 146.683 C 39.916 141.994,33.428 138.165,33.316 138.176 C 33.204 138.187,26.623 142.070,18.692 146.806 M282.527 181.479 C 273.785 186.694,266.434 191.041,266.192 191.139 C 265.949 191.236,265.689 191.512,265.613 191.750 C 265.434 192.314,267.081 193.233,249.724 182.893 C 237.027 175.330,234.377 173.824,234.034 173.982 C 233.808 174.087,227.009 178.110,218.925 182.923 L 204.229 191.674 233.587 209.082 C 249.734 218.656,263.701 226.930,264.625 227.467 L 266.304 228.445 297.951 209.681 C 315.356 199.361,329.598 190.829,329.598 190.721 C 329.598 190.533,298.840 171.973,298.557 171.990 C 298.482 171.994,291.268 176.265,282.527 181.479 M165.665 174.604 C 165.385 174.675,164.376 175.204,163.423 175.779 C 162.471 176.355,155.181 180.695,147.224 185.424 C 139.266 190.153,132.424 194.237,132.019 194.500 L 131.282 194.978 115.513 185.516 C 106.841 180.313,99.618 176.103,99.463 176.162 C 98.932 176.363,70.301 193.462,70.309 193.573 C 70.335 193.930,131.449 229.852,132.031 229.852 C 132.517 229.852,140.359 225.295,164.348 211.074 L 196.023 192.295 181.133 183.361 C 172.944 178.447,166.228 174.438,166.209 174.451 C 166.190 174.464,165.945 174.533,165.665 174.604 M185.481 239.379 C 174.729 245.787,171.632 247.721,171.829 247.902 C 171.969 248.032,178.469 251.962,186.273 256.636 L 200.462 265.136 214.748 256.631 L 229.033 248.127 214.822 239.601 C 204.344 233.315,200.451 231.077,200.000 231.083 C 199.567 231.088,195.336 233.506,185.481 239.379 M284.294 296.986 C 270.171 305.359,269.180 305.983,269.180 306.501 C 269.180 306.980,269.088 307.065,268.511 307.120 C 267.881 307.179,236.577 325.537,236.577 325.847 C 236.577 326.215,267.022 344.213,267.327 344.026 C 267.505 343.916,281.635 335.544,298.726 325.421 C 315.818 315.299,329.914 306.916,330.051 306.792 C 330.239 306.622,326.497 304.284,314.855 297.297 L 299.409 288.026 284.294 296.986 M87.300 298.695 C 79.670 303.251,73.225 307.117,72.978 307.285 C 72.548 307.577,73.888 308.396,103.559 325.981 C 120.626 336.096,134.649 344.395,134.721 344.423 C 134.961 344.514,164.635 326.754,164.486 326.608 C 163.868 326.000,136.535 310.029,136.485 310.246 C 136.446 310.420,135.940 310.161,135.050 309.509 C 133.916 308.678,133.613 308.542,133.315 308.728 C 133.012 308.916,130.418 307.449,117.287 299.662 C 108.670 294.553,101.519 290.381,101.396 290.391 C 101.273 290.402,94.929 294.139,87.300 298.695 " stroke="none" fill="#545353" fill-rule="evenodd"></path><path id="path3" d="M131.279 41.695 L 99.440 60.572 99.440 79.004 L 99.440 97.435 100.102 97.031 C 105.201 93.915,132.624 77.777,132.822 77.775 C 132.971 77.774,133.327 77.465,133.613 77.090 C 133.997 76.586,134.200 76.463,134.389 76.620 C 134.600 76.795,162.285 60.686,163.068 59.932 C 163.152 59.851,163.198 51.466,163.170 41.301 L 163.118 22.818 131.279 41.695 M314.060 52.016 L 299.338 60.800 299.338 78.293 L 299.338 95.785 299.828 95.524 C 300.097 95.380,306.790 91.411,314.701 86.704 L 329.083 78.146 329.086 60.672 C 329.087 51.062,329.019 43.206,328.935 43.215 C 328.851 43.224,322.157 47.185,314.060 52.016 M232.552 100.417 L 201.732 118.690 201.732 154.620 C 201.732 174.381,201.801 190.513,201.885 190.470 C 204.566 189.087,232.083 172.452,232.009 172.258 C 231.953 172.113,231.997 171.940,232.106 171.872 C 232.480 171.641,232.346 134.751,231.968 134.175 C 231.658 133.702,231.674 133.677,232.667 133.065 C 233.226 132.721,233.836 132.207,234.023 131.922 C 234.257 131.565,234.437 131.464,234.604 131.599 C 234.808 131.764,262.610 115.464,263.299 114.776 C 263.398 114.676,263.454 107.435,263.425 98.371 L 263.372 82.144 232.552 100.417 M299.592 136.878 L 268.161 155.536 268.161 171.525 L 268.161 187.515 268.619 187.218 C 270.951 185.707,298.368 169.536,298.597 169.536 C 298.763 169.536,306.150 173.888,315.012 179.206 L 331.126 188.876 331.126 153.531 C 331.126 134.091,331.103 118.194,331.075 118.203 C 331.047 118.212,316.880 126.616,299.592 136.878 M148.812 148.819 L 133.691 157.820 133.682 174.388 L 133.673 190.955 134.539 190.434 C 135.015 190.147,141.844 186.084,149.715 181.405 L 164.024 172.899 164.030 156.342 C 164.032 147.236,164.012 139.793,163.984 139.802 C 163.956 139.811,157.128 143.869,148.812 148.819 M383.148 162.566 L 367.825 171.676 367.815 209.136 C 367.809 230.816,367.880 246.567,367.985 246.527 C 368.084 246.490,375.007 242.386,383.370 237.408 L 398.574 228.357 398.574 190.898 C 398.574 170.295,398.551 153.443,398.523 153.448 C 398.495 153.452,391.576 157.556,383.148 162.566 M49.873 167.536 L 34.845 176.506 34.845 213.683 C 34.845 245.311,34.887 250.836,35.127 250.698 C 35.282 250.608,42.113 246.546,50.306 241.671 L 65.202 232.807 65.204 195.670 C 65.205 175.245,65.138 158.540,65.053 158.550 C 64.969 158.559,58.138 162.603,49.873 167.536 M300.458 213.352 L 269.282 231.839 269.230 267.631 L 269.179 303.423 269.638 303.130 C 269.890 302.969,283.897 294.661,300.764 284.667 C 317.631 274.673,331.501 266.431,331.585 266.350 C 331.669 266.270,331.715 250.152,331.687 230.534 L 331.635 194.865 300.458 213.352 M167.193 214.544 L 136.016 233.030 135.965 269.235 L 135.913 305.441 137.714 304.376 C 138.704 303.790,145.763 299.598,153.399 295.059 L 167.283 286.806 167.289 268.624 L 167.295 250.442 166.775 250.102 C 166.471 249.903,166.302 249.641,166.367 249.471 C 166.428 249.311,166.383 249.003,166.267 248.786 C 166.088 248.451,166.161 248.329,166.755 247.979 C 167.139 247.752,167.701 247.193,168.004 246.736 C 168.407 246.126,168.614 245.965,168.780 246.131 C 168.905 246.256,169.114 246.358,169.244 246.358 C 169.505 246.358,197.806 229.566,198.218 229.166 C 198.420 228.970,198.463 225.462,198.422 212.488 L 198.370 196.058 167.193 214.544 M216.763 260.577 L 202.145 269.282 202.142 307.042 L 202.140 344.801 203.006 344.278 C 203.482 343.991,210.494 339.836,218.587 335.046 C 231.069 327.660,233.304 326.268,233.310 325.879 C 233.313 325.627,233.432 325.420,233.573 325.420 C 233.714 325.420,233.945 325.236,234.086 325.010 C 234.315 324.643,234.389 324.630,234.797 324.885 C 235.177 325.122,263.902 308.555,264.982 307.475 C 265.038 307.419,257.840 303.027,248.987 297.716 C 240.133 292.405,232.842 287.984,232.785 287.891 C 232.728 287.799,232.457 287.723,232.184 287.723 L 231.686 287.723 231.686 269.791 C 231.686 259.929,231.617 251.862,231.533 251.866 C 231.449 251.870,224.802 255.790,216.763 260.577 M301.579 328.865 L 269.689 347.784 269.637 364.740 C 269.604 375.521,269.656 381.671,269.781 381.627 C 269.889 381.590,284.285 373.077,301.772 362.710 L 333.568 343.861 333.569 326.898 C 333.570 317.567,333.548 309.937,333.520 309.941 C 333.492 309.944,319.119 318.460,301.579 328.865 M152.473 339.132 L 137.346 348.141 137.343 365.936 C 137.342 376.197,137.417 383.704,137.521 383.664 C 137.621 383.627,144.494 379.562,152.795 374.631 L 167.889 365.665 167.898 347.886 C 167.902 338.107,167.837 330.111,167.753 330.115 C 167.669 330.119,160.793 334.177,152.473 339.132 " stroke="none" fill="#1c1c1c" fill-rule="evenodd"></path><path id="path4" d="M131.686 229.993 C 131.882 230.044,132.203 230.044,132.399 229.993 C 132.596 229.941,132.435 229.900,132.043 229.900 C 131.651 229.900,131.490 229.941,131.686 229.993 " stroke="none" fill="#804e3d" fill-rule="evenodd"></path></g></svg>