<?xml version="1.0" encoding="UTF-8"?>
<!DOCTYPE svg PUBLIC "-//W3C//DTD SVG 1.1//EN" "http://www.w3.org/Graphics/SVG/1.1/DTD/svg11.dtd">
<svg xmlns="http://www.w3.org/2000/svg" version="1.1" width="1547px" height="1044px" style="shape-rendering:geometricPrecision; text-rendering:geometricPrecision; image-rendering:optimizeQuality; fill-rule:evenodd; clip-rule:evenodd" xmlns:xlink="http://www.w3.org/1999/xlink">
<g><path style="opacity:0.993" fill="#f1f1f1" d="M 2.5,-0.5 C 517.167,-0.5 1031.83,-0.5 1546.5,-0.5C 1546.5,24.8333 1546.5,50.1667 1546.5,75.5C 1427.5,75.5 1308.5,75.5 1189.5,75.5C 1189.5,199.5 1189.5,323.5 1189.5,447.5C 1165.17,447.5 1140.83,447.5 1116.5,447.5C 1116.5,323.5 1116.5,199.5 1116.5,75.5C 996.498,75.1667 876.498,75.5 756.5,76.5C 805.941,135.606 822.108,202.94 805,278.5C 783.823,353.012 737.323,404.845 665.5,434C 646.423,441.019 626.756,445.353 606.5,447C 405.167,447.5 203.834,447.667 2.5,447.5C 2.5,424.833 2.5,402.167 2.5,379.5C 198.834,379.667 395.167,379.5 591.5,379C 653.792,372.45 697.625,340.616 723,283.5C 745.39,216.557 730.89,159.057 679.5,111C 654.539,90.5291 625.873,78.8624 593.5,76C 396.5,75.5 199.5,75.3333 2.5,75.5C 2.5,50.1667 2.5,24.8333 2.5,-0.5 Z"/></g>
<g><path style="opacity:0.995" fill="#f1f1f1" d="M -0.5,594.5 C 23.5,594.5 47.5,594.5 71.5,594.5C 71.3333,708.5 71.5,822.5 72,936.5C 174.5,822.667 277,708.833 379.5,595C 403.498,594.5 427.498,594.333 451.5,594.5C 451.002,709.307 451.502,823.974 453,938.5C 556.517,824.617 659.684,710.45 762.5,596C 798.5,595.333 834.5,595.333 870.5,596C 731.167,744.667 591.833,893.333 452.5,1042C 428.169,1042.5 403.836,1042.67 379.5,1042.5C 379.667,932.166 379.5,821.833 379,711.5C 276.3,820.532 173.967,929.865 72,1039.5C 71.5172,1040.45 71.3505,1041.45 71.5,1042.5C 47.5,1042.5 23.5,1042.5 -0.5,1042.5C -0.5,893.167 -0.5,743.833 -0.5,594.5 Z"/></g>
<g><path style="opacity:0.996" fill="#f1f1f1" d="M 1091.5,1043.5 C 1067.83,1043.5 1044.17,1043.5 1020.5,1043.5C 1020.5,995.5 1020.5,947.5 1020.5,899.5C 949.166,899.333 877.833,899.5 806.5,900C 761.884,947.405 717.384,994.905 673,1042.5C 672.333,1007.5 672.333,972.5 673,937.5C 673.333,937.833 673.667,938.167 674,938.5C 777.517,824.617 880.684,710.45 983.5,596C 1019.5,595.5 1055.5,595.333 1091.5,595.5C 1091.5,744.833 1091.5,894.167 1091.5,1043.5 Z M 1019.5,672.5 C 1020.5,722.664 1020.83,772.997 1020.5,823.5C 973.165,823.667 925.832,823.5 878.5,823C 925.855,773.087 972.855,722.92 1019.5,672.5 Z"/></g>
<g><path style="opacity:0.996" fill="#f1f1f1" d="M 1546.5,595.5 C 1546.5,595.833 1546.5,596.167 1546.5,596.5C 1447.87,701.303 1349.37,806.303 1251,911.5C 1250.5,955.499 1250.33,999.499 1250.5,1043.5C 1226.83,1043.5 1203.17,1043.5 1179.5,1043.5C 1179.5,894.167 1179.5,744.833 1179.5,595.5C 1203.17,595.5 1226.83,595.5 1250.5,595.5C 1250,666.309 1250.5,736.975 1252,807.5C 1315.87,737.298 1379.37,666.798 1442.5,596C 1477.17,595.5 1511.83,595.333 1546.5,595.5 Z"/></g>
</svg>
