<svg id="svg" version="1.1" xmlns="http://www.w3.org/2000/svg" width="400" height="59.90660440293529"
     viewBox="0, 0, 400,59.90660440293529"><g id="svgg"><path id="path0" d="M0.000 5.083 L 0.000 10.167 23.708 10.168 C 38.587 10.168,47.789 10.230,48.417 10.334 C 48.967 10.425,49.754 10.545,50.167 10.600 C 51.716 10.809,55.588 12.298,56.299 12.958 C 56.423 13.073,56.596 13.167,56.685 13.167 C 57.688 13.167,62.032 17.554,63.534 20.083 C 64.599 21.876,65.393 23.700,65.567 24.750 C 65.597 24.933,65.763 25.533,65.936 26.083 C 66.473 27.793,66.390 33.258,65.796 35.250 C 64.936 38.139,64.600 38.928,63.384 40.917 C 63.272 41.100,63.127 41.362,63.061 41.500 C 62.647 42.375,59.847 45.352,58.577 46.266 C 58.207 46.532,57.794 46.845,57.660 46.961 C 56.524 47.943,52.630 49.716,51.092 49.951 C 50.812 49.993,50.133 50.150,49.583 50.298 C 48.689 50.539,46.027 50.573,24.292 50.623 L 0.000 50.679 0.000 55.260 L 0.000 59.842 25.292 59.787 L 50.583 59.732 52.583 59.283 C 56.225 58.467,57.338 58.084,60.303 56.631 C 61.980 55.809,64.528 54.246,64.639 53.971 C 64.669 53.895,64.800 53.833,64.929 53.833 C 65.058 53.833,65.258 53.683,65.372 53.500 C 65.487 53.317,65.647 53.167,65.729 53.167 C 65.811 53.167,66.042 52.998,66.241 52.792 C 66.440 52.585,67.086 51.962,67.677 51.406 C 68.958 50.200,70.372 48.592,71.260 47.333 C 71.616 46.829,71.952 46.379,72.007 46.333 C 72.062 46.288,72.157 46.137,72.217 46.000 C 72.277 45.862,72.513 45.450,72.741 45.083 C 73.227 44.302,74.833 41.053,74.833 40.850 C 74.833 40.774,74.975 40.345,75.149 39.897 C 76.464 36.508,76.877 33.840,76.794 29.271 C 76.720 25.180,76.632 24.564,75.663 21.333 C 74.900 18.791,74.624 18.139,72.906 14.833 C 72.605 14.253,71.784 13.039,71.047 12.083 C 70.835 11.808,70.575 11.471,70.470 11.333 C 70.365 11.196,70.089 10.877,69.858 10.625 L 69.438 10.167 86.219 10.167 L 103.000 10.167 103.000 35.003 L 103.000 59.838 107.875 59.794 L 112.750 59.750 112.792 34.958 L 112.834 10.167 136.667 10.167 L 160.500 10.167 160.500 5.083 L 160.500 0.000 80.250 0.000 L 0.000 0.000 0.000 5.083 M193.500 29.917 L 193.500 59.833 198.337 59.833 L 203.175 59.833 203.327 59.434 C 203.410 59.215,203.540 59.008,203.614 58.976 C 203.689 58.943,205.209 57.342,206.992 55.417 C 208.774 53.492,210.499 51.645,210.825 51.314 C 211.688 50.434,216.427 45.363,217.913 43.729 C 218.483 43.102,222.021 39.339,222.541 38.807 C 222.884 38.456,224.576 36.649,226.301 34.793 C 228.026 32.936,229.920 30.920,230.510 30.312 C 231.663 29.126,232.353 28.389,235.333 25.161 C 236.387 24.019,237.588 22.736,238.000 22.311 C 239.069 21.208,241.020 19.140,242.667 17.363 L 244.083 15.834 244.167 37.792 L 244.250 59.750 249.083 59.793 L 253.917 59.837 255.583 58.061 C 256.500 57.085,257.625 55.890,258.083 55.407 C 259.797 53.601,260.497 52.854,262.756 50.417 C 264.031 49.042,265.470 47.511,265.954 47.016 C 266.438 46.521,266.833 46.091,266.833 46.061 C 266.833 46.031,267.283 45.574,267.833 45.045 C 268.382 44.516,268.832 44.040,268.833 43.986 C 268.833 43.933,269.304 43.408,269.879 42.819 C 270.454 42.231,271.785 40.817,272.837 39.676 C 273.889 38.536,275.219 37.116,275.792 36.522 C 276.365 35.927,276.833 35.423,276.833 35.402 C 276.833 35.381,277.302 34.883,277.875 34.295 C 278.448 33.707,279.367 32.740,279.917 32.147 C 282.689 29.153,285.002 26.686,285.750 25.924 C 286.208 25.456,288.044 23.501,289.829 21.579 C 291.614 19.656,293.527 17.619,294.079 17.053 C 295.589 15.502,296.494 14.535,301.990 8.595 C 302.408 8.143,303.275 7.234,303.917 6.576 C 304.558 5.918,305.608 4.806,306.250 4.105 C 306.892 3.404,307.960 2.251,308.625 1.542 C 309.290 0.834,309.833 0.197,309.833 0.127 C 309.833 0.057,306.606 -0.000,302.661 -0.000 L 295.489 -0.000 294.953 0.551 C 294.658 0.854,294.189 1.360,293.911 1.676 C 292.563 3.205,288.899 7.269,288.736 7.417 C 288.634 7.508,287.548 8.708,286.323 10.083 C 283.073 13.731,283.107 13.693,282.815 13.983 C 282.560 14.237,278.641 18.611,277.583 19.823 C 277.308 20.138,276.929 20.550,276.740 20.740 C 276.551 20.929,275.437 22.171,274.264 23.500 C 273.090 24.829,271.895 26.148,271.607 26.432 C 271.155 26.876,269.903 28.259,268.887 29.436 C 268.286 30.132,266.402 32.212,265.667 32.991 C 264.886 33.818,264.761 33.957,262.602 36.417 C 261.877 37.242,261.033 38.144,260.726 38.421 C 260.418 38.698,260.167 38.972,260.167 39.029 C 260.167 39.086,259.923 39.386,259.625 39.694 C 259.066 40.274,256.798 42.789,255.917 43.807 C 255.642 44.125,255.117 44.688,254.750 45.060 L 254.083 45.735 254.041 22.868 L 253.999 0.000 249.124 0.002 L 244.250 0.005 243.583 0.794 C 243.217 1.228,242.637 1.883,242.294 2.250 C 240.448 4.229,240.141 4.569,238.019 7.000 C 236.825 8.367,236.413 8.815,235.032 10.250 C 234.679 10.617,233.537 11.892,232.496 13.083 C 231.454 14.275,230.373 15.491,230.093 15.785 C 229.115 16.812,228.552 17.428,227.157 19.000 C 225.420 20.957,224.919 21.507,224.125 22.328 C 223.781 22.683,223.500 23.011,223.500 23.057 C 223.500 23.103,223.181 23.468,222.792 23.870 C 222.402 24.271,221.596 25.153,221.000 25.830 C 220.404 26.507,219.654 27.346,219.333 27.694 C 219.012 28.042,218.412 28.712,218.000 29.182 C 217.588 29.652,216.987 30.311,216.667 30.645 C 216.346 30.980,215.596 31.808,215.000 32.486 C 214.084 33.527,212.925 34.811,211.833 35.992 C 211.425 36.434,208.957 39.194,208.417 39.813 C 208.142 40.128,207.654 40.668,207.333 41.012 C 207.012 41.356,206.487 41.939,206.167 42.307 C 205.846 42.675,205.077 43.523,204.458 44.192 L 203.333 45.407 203.333 22.704 L 203.333 0.000 198.417 0.000 L 193.500 0.000 193.500 29.917 M324.333 0.691 C 324.012 1.067,323.516 1.610,323.230 1.896 C 322.944 2.182,322.050 3.167,321.243 4.083 C 320.436 5.000,319.619 5.900,319.428 6.083 C 319.237 6.267,318.185 7.429,317.090 8.667 C 315.995 9.904,314.833 11.206,314.508 11.560 C 314.183 11.914,313.729 12.410,313.500 12.664 C 313.271 12.917,312.853 13.377,312.571 13.687 C 312.290 13.997,311.359 15.037,310.503 16.000 C 309.013 17.676,308.437 18.308,307.182 19.645 C 306.869 19.978,305.868 21.094,304.956 22.125 C 304.045 23.156,303.232 24.000,303.150 24.000 C 303.067 24.000,303.000 24.081,303.000 24.181 C 303.000 24.281,302.756 24.628,302.458 24.952 C 302.160 25.277,301.705 25.777,301.446 26.063 C 301.187 26.349,300.656 26.921,300.265 27.333 C 299.875 27.746,298.930 28.796,298.165 29.667 C 297.400 30.537,296.544 31.475,296.262 31.750 C 295.980 32.024,295.750 32.293,295.750 32.346 C 295.750 32.400,295.485 32.700,295.161 33.014 C 294.837 33.327,293.750 34.521,292.744 35.666 C 291.739 36.812,290.654 38.027,290.333 38.367 C 289.499 39.249,288.720 40.109,285.417 43.791 C 284.291 45.046,283.514 45.792,283.427 45.704 C 283.375 45.653,283.333 48.774,283.333 52.639 C 283.333 56.504,283.390 59.667,283.460 59.667 C 283.529 59.667,284.298 58.901,285.168 57.965 C 286.038 57.028,287.507 55.472,288.432 54.506 C 289.358 53.540,291.117 51.663,292.343 50.333 C 294.841 47.624,295.431 46.995,298.182 44.110 C 299.245 42.995,300.398 41.765,300.743 41.375 L 301.372 40.667 315.603 40.667 L 329.833 40.667 329.833 50.250 L 329.833 59.833 334.583 59.833 L 339.333 59.833 339.333 29.917 L 339.333 0.000 332.125 0.004 L 324.917 0.008 324.333 0.691 M351.000 29.917 L 351.000 59.833 355.750 59.833 L 360.500 59.833 360.500 51.144 L 360.500 42.454 361.196 41.685 C 362.278 40.491,365.674 36.865,366.425 36.102 C 367.004 35.514,368.566 33.845,372.417 29.698 C 372.875 29.204,373.662 28.367,374.167 27.837 C 374.671 27.306,375.946 25.947,377.000 24.815 C 380.747 20.794,381.583 19.906,382.438 19.042 C 382.915 18.560,383.280 18.167,383.250 18.167 C 383.221 18.167,383.696 17.659,384.307 17.038 C 384.917 16.418,385.792 15.496,386.250 14.991 C 388.871 12.101,391.890 8.899,394.179 6.583 C 394.722 6.033,395.167 5.541,395.167 5.490 C 395.167 5.438,395.598 4.948,396.125 4.401 C 398.730 1.697,400.000 0.307,400.000 0.161 C 400.000 0.060,397.397 0.000,393.000 0.000 C 387.314 0.000,386.000 0.041,386.000 0.220 C 386.000 0.341,385.831 0.593,385.625 0.781 C 385.190 1.176,382.975 3.590,381.071 5.744 C 379.539 7.476,379.030 8.040,378.000 9.146 C 377.210 9.994,375.482 11.928,374.500 13.063 C 374.179 13.434,373.608 14.059,373.232 14.452 C 372.855 14.845,372.574 15.167,372.607 15.167 C 372.640 15.167,372.381 15.448,372.032 15.792 C 371.682 16.135,370.844 17.054,370.169 17.833 C 368.994 19.189,368.697 19.516,367.448 20.833 C 367.144 21.154,366.497 21.867,366.012 22.417 C 365.526 22.967,364.593 24.013,363.939 24.743 C 363.285 25.472,362.488 26.365,362.167 26.728 C 360.957 28.094,360.715 28.326,360.609 28.220 C 360.549 28.160,360.500 21.786,360.500 14.056 L 360.500 0.000 355.750 0.000 L 351.000 0.000 351.000 29.917 M329.833 20.500 L 329.833 30.500 320.399 30.500 L 310.964 30.500 312.305 29.031 C 313.042 28.223,314.250 26.944,314.989 26.188 C 315.729 25.431,316.333 24.783,316.333 24.747 C 316.333 24.710,316.733 24.284,317.222 23.799 C 317.711 23.314,319.111 21.829,320.333 20.500 C 321.555 19.171,322.955 17.680,323.444 17.187 C 323.933 16.694,324.333 16.256,324.333 16.215 C 324.333 16.174,324.652 15.820,325.042 15.428 C 325.431 15.037,326.646 13.768,327.740 12.608 C 328.835 11.449,329.754 10.500,329.782 10.500 C 329.810 10.500,329.833 15.000,329.833 20.500 " stroke="none" fill="#f4f4f4" fill-rule="evenodd"></path><path id="path1" d="M76.900 29.833 C 76.900 31.254,76.926 31.835,76.957 31.125 C 76.988 30.415,76.988 29.252,76.957 28.542 C 76.926 27.831,76.900 28.412,76.900 29.833 M66.209 32.583 C 66.211 32.950,66.245 33.080,66.285 32.873 C 66.324 32.666,66.323 32.366,66.281 32.206 C 66.239 32.047,66.207 32.217,66.209 32.583 M11.721 50.625 C 18.214 50.649,28.789 50.649,35.221 50.625 C 41.654 50.601,36.342 50.581,23.417 50.581 C 10.492 50.581,5.229 50.601,11.721 50.625 " stroke="none" fill="#f8f4f4" fill-rule="evenodd"></path><path id="path2" d="M76.900 29.833 C 76.900 31.254,76.926 31.835,76.957 31.125 C 76.988 30.415,76.988 29.252,76.957 28.542 C 76.926 27.831,76.900 28.412,76.900 29.833 M66.209 32.583 C 66.211 32.950,66.245 33.080,66.285 32.873 C 66.324 32.666,66.323 32.366,66.281 32.206 C 66.239 32.047,66.207 32.217,66.209 32.583 M11.721 50.625 C 18.214 50.649,28.789 50.649,35.221 50.625 C 41.654 50.601,36.342 50.581,23.417 50.581 C 10.492 50.581,5.229 50.601,11.721 50.625 " stroke="none" fill="#f8f4f4" fill-rule="evenodd"></path><path id="path3" d="M76.900 29.833 C 76.900 31.254,76.926 31.835,76.957 31.125 C 76.988 30.415,76.988 29.252,76.957 28.542 C 76.926 27.831,76.900 28.412,76.900 29.833 M66.209 32.583 C 66.211 32.950,66.245 33.080,66.285 32.873 C 66.324 32.666,66.323 32.366,66.281 32.206 C 66.239 32.047,66.207 32.217,66.209 32.583 M11.721 50.625 C 18.214 50.649,28.789 50.649,35.221 50.625 C 41.654 50.601,36.342 50.581,23.417 50.581 C 10.492 50.581,5.229 50.601,11.721 50.625 " stroke="none" fill="#f8f4f4" fill-rule="evenodd"></path><path id="path4" d="M76.900 29.833 C 76.900 31.254,76.926 31.835,76.957 31.125 C 76.988 30.415,76.988 29.252,76.957 28.542 C 76.926 27.831,76.900 28.412,76.900 29.833 M66.209 32.583 C 66.211 32.950,66.245 33.080,66.285 32.873 C 66.324 32.666,66.323 32.366,66.281 32.206 C 66.239 32.047,66.207 32.217,66.209 32.583 M11.721 50.625 C 18.214 50.649,28.789 50.649,35.221 50.625 C 41.654 50.601,36.342 50.581,23.417 50.581 C 10.492 50.581,5.229 50.601,11.721 50.625 " stroke="none" fill="#f8f4f4" fill-rule="evenodd"></path></g></svg>